<?xml version="1.0" encoding="UTF-8"?>
<!DOCTYPE svg PUBLIC "-//W3C//DTD SVG 1.1//EN" "http://www.w3.org/Graphics/SVG/1.1/DTD/svg11.dtd">
<!-- Creator: CorelDRAW X7 -->
<svg xmlns="http://www.w3.org/2000/svg" xml:space="preserve" width="17mm" height="17mm" version="1.1" style="shape-rendering:geometricPrecision; text-rendering:geometricPrecision; image-rendering:optimizeQuality; fill-rule:evenodd; clip-rule:evenodd"
viewBox="0 0 1700 1700"
 xmlns:xlink="http://www.w3.org/1999/xlink">
 <defs>
  <style type="text/css">
   <![CDATA[
    .fil2 {fill:white}
    .fil0 {fill:#B0B0B0;fill-rule:nonzero}
    .fil1 {fill:white;fill-rule:nonzero}
   ]]>
  </style>
 </defs>
 <g id="Layer_x0020_1">
  <metadata id="CorelCorpID_0Corel-Layer"/>
  <path class="fil0" d="M224 65c-44,0 -85,18 -114,47l0 0c-29,30 -47,70 -47,115 0,45 18,85 47,114l0 0c29,30 70,48 114,48 45,0 86,-18 115,-48l0 0c29,-29 47,-69 47,-114 0,-45 -18,-85 -47,-115 -29,-29 -70,-47 -115,-47zm182 282l2 1 139 139c20,21 20,54 0,75l0 0c-21,20 -54,20 -75,0l-139 -139c-1,-2 -3,-3 -4,-5 -31,17 -67,27 -105,27 -60,0 -114,-25 -154,-64l0 0c-39,-40 -64,-94 -64,-154 0,-60 25,-115 64,-154l0 0c40,-40 94,-64 154,-64 61,0 115,24 155,64 39,39 64,94 64,154 0,44 -14,85 -37,120l0 0z"/>
  <path class="fil1" d="M1296 62c-45,0 -85,18 -114,47l0 0c-29,29 -48,70 -48,114 0,45 19,85 48,115l0 0c29,29 70,47 114,47 45,0 85,-18 115,-47l0 0c29,-29 47,-70 47,-115 0,-44 -18,-85 -47,-114 -30,-29 -70,-47 -115,-47zm182 281l1 1 140 140c20,20 20,54 0,74l0 0c-21,21 -55,21 -75,0l-139 -139c-2,-1 -3,-3 -4,-4 -31,17 -67,26 -105,26 -60,0 -115,-24 -154,-63l0 -1c-39,-39 -64,-94 -64,-154 0,-60 25,-114 64,-154l0 0c40,-39 94,-64 154,-64 60,0 115,25 154,64 40,40 64,94 64,154 0,45 -13,86 -36,120l0 0z"/>
  <path class="fil2" d="M1084 1124l483 0c31,0 56,22 56,48l0 1c0,26 -25,48 -56,48l-483 0c-30,0 -56,-22 -56,-48l0 -1c0,-26 26,-48 56,-48z"/>
  <path class="fil2" d="M1084 1478l483 0c31,0 56,22 56,48l0 1c0,26 -25,48 -56,48l-483 0c-30,0 -56,-22 -56,-48l0 -1c0,-26 26,-48 56,-48z"/>
  <path class="fil2" d="M1084 1301l483 0c31,0 56,22 56,48l0 1c0,26 -25,48 -56,48l-483 0c-30,0 -56,-22 -56,-48l0 -1c0,-26 26,-48 56,-48z"/>
 </g>
</svg>
